<?xml version="1.0" encoding="UTF-8"?>
<svg xmlns="http://www.w3.org/2000/svg" version="1.1" viewBox="0 0 24 24">
  <defs>
    <style>
      .cls-1 {
        fill: aqua;
      }
    </style>
  </defs>
  <!-- Generator: Adobe Illustrator 28.7.4, SVG Export Plug-In . SVG Version: 1.2.0 Build 166)  -->
  <g>
    <g id="Layer_1">
      <path class="cls-1" d="M10.9,2.1C6.3,2.6,2.6,6.3,2.1,10.8c-.5,4.7,2.2,8.9,6.3,10.5.3.1.6-.1.6-.5v-1.6s-.4.1-.9.1c-1.4,0-2-1.2-2.1-1.9,0-.4-.3-.7-.6-1-.3-.1-.4-.1-.4-.2,0-.2.3-.2.4-.2.6,0,1.1.7,1.3,1,.5.8,1.1,1,1.4,1s.7-.1.9-.2c.1-.7.4-1.4,1-1.8-2.3-.5-4-1.8-4-4s.5-2.2,1.2-3c0-.2-.2-.7-.2-1.4s0-.9.2-1.3c0-.2.2-.3.3-.3h0c.5,0,1.5.4,2.4,1.3.6-.2,1.3-.3,2-.3s1.4,0,2,.3c.9-.9,2-1.2,2.5-1.3h.1c.2,0,.3,0,.4.3v1.3c0,.8-.1,1.2-.2,1.4.7.8,1.2,1.8,1.2,3,0,2.2-1.7,3.5-4,4,.6.5,1,1.4,1,2.3v2.6c0,.3.3.6.7.5,3.7-1.5,6.3-5.1,6.3-9.3,0-6-5.1-10.7-11.1-10Z"/>
    </g>
  </g>
</svg>