<?xml version="1.0" encoding="UTF-8"?>
<svg xmlns="http://www.w3.org/2000/svg" version="1.1" viewBox="0 0 100 100">
  <defs>
    <style>
      .cls-1 {
        fill: aqua;
      }
    </style>
  </defs>
  <!-- Generator: Adobe Illustrator 28.7.4, SVG Export Plug-In . SVG Version: 1.2.0 Build 166)  -->
  <g>
    <g id="Layer_1">
      <path class="cls-1" d="M18,8c-5.5,0-10,4.5-10,10v64c0,5.5,4.5,10,10,10h64c5.5,0,10-4.5,10-10V18c0-5.5-4.5-10-10-10H18ZM18,12h64c3.3,0,6,2.7,6,6v64c0,3.3-2.7,6-6,6H18c-3.3,0-6-2.7-6-6V18c0-3.3,2.7-6,6-6ZM28,22c-2.2,0-4.2.7-5.6,1.9s-2.4,3.1-2.4,5c0,3.7,3.2,6.6,7.4,6.9,0,0,0,0,0,0,.2,0,.4.1.6.1,4.5,0,8-3.2,8-7,0,0,0,0,0-.1-.2-3.8-3.6-6.8-8-6.8h0ZM28,26c2.8,0,3.9,1.2,4,3,0,1.7-1.1,3-4,3s-4-1.4-4-3.1.3-1.5.9-2c.6-.5,1.7-1,3.1-1h0ZM22,38c-1.1,0-2,.9-2,2v38c0,1.1.9,2,2,2h12c1.1,0,2-.9,2-2v-38c0-1.1-.9-2-2-2h-12ZM40,38c-1.1,0-2,.9-2,2v38c0,1.1.9,2,2,2h12c1.1,0,2-.9,2-2v-20c0-1.7.5-3.3,1.2-4.4.8-1.1,1.8-1.7,3.7-1.7,2,0,3,.7,3.8,1.8.8,1.1,1.2,2.6,1.2,4.3v20c0,1.1.9,2,2,2h12c1.1,0,2-.9,2-2v-21.5c0-5.9-1.8-10.6-4.8-13.8s-7.2-4.7-11.6-4.7-7.4,1.4-9.6,2.8v-.8c0-1.1-.9-2-2-2h-12ZM24,42h8v34h-8v-34ZM42,42h8v3.1c0,.9.6,1.6,1.4,1.9.8.3,1.7,0,2.2-.7,0,0,3.1-4.3,10-4.3s6.5,1.2,8.7,3.5c2.2,2.3,3.7,5.9,3.7,11v19.5h-8v-18c0-2.3-.6-4.7-2-6.7-1.5-2-3.9-3.3-6.9-3.4-3,0-5.5,1.3-7,3.3s-2,4.4-2,6.8v18h-8v-34Z"/>
    </g>
  </g>
</svg>